<svg xmlns="http://www.w3.org/2000/svg" viewBox="0 0 300 220" width="300" height="220">
<rect width="300" height="220" fill="#f4e0f7"/>
<ellipse cx="150" cy="95" rx="65" ry="55" fill="#b45fc9" stroke="#7c2f92" stroke-width="4"/>
<circle cx="128" cy="85" r="6" fill="#1c1c1c"/>
<circle cx="172" cy="85" r="6" fill="#1c1c1c"/>
<path d="M100 130 Q 85 160 60 175 Q 90 175 105 155 Z" fill="#b45fc9" stroke="#7c2f92" stroke-width="3"/>
<path d="M120 140 Q 110 175 95 195 Q 125 190 130 160 Z" fill="#b45fc9" stroke="#7c2f92" stroke-width="3"/>
<path d="M150 145 Q 150 180 150 200 Q 170 185 165 155 Z" fill="#b45fc9" stroke="#7c2f92" stroke-width="3"/>
<path d="M180 140 Q 195 175 210 195 Q 190 185 175 160 Z" fill="#b45fc9" stroke="#7c2f92" stroke-width="3"/>
<path d="M200 130 Q 220 160 240 170 Q 220 175 195 155 Z" fill="#b45fc9" stroke="#7c2f92" stroke-width="3"/>
</svg>
