<svg xmlns="http://www.w3.org/2000/svg" viewBox="0 0 300 220" width="300" height="220">
<rect width="300" height="220" fill="#e6f7f0"/>
<path d="M150 40 Q 175 40 178 65 Q 180 85 160 95 Q 185 100 185 125 Q 185 145 165 150 Q 175 165 160 180 Q 150 190 140 178 Q 155 175 150 160 Q 125 158 120 135 Q 118 118 135 112 Q 118 105 120 85 Q 122 55 150 40 Z" fill="#f7c948" stroke="#c99420" stroke-width="4" stroke-linejoin="round"/>
<circle cx="160" cy="62" r="4" fill="#7a5a10"/>
<path d="M178 58 Q 195 55 198 68 Q 190 72 178 68 Z" fill="#f7c948" stroke="#c99420" stroke-width="2"/>
<path d="M118 130 Q 100 128 98 145 Q 108 148 120 140" fill="#f7c948" stroke="#c99420" stroke-width="2"/>
</svg>
