<svg xmlns="http://www.w3.org/2000/svg" viewBox="0 0 300 220" width="300" height="220">
<rect width="300" height="220" fill="#dcecf9"/>
<path d="M40 130 Q 40 90 100 85 Q 150 65 220 90 Q 260 100 270 120 Q 250 125 230 120 Q 245 140 225 150 Q 205 140 200 125 Q 150 145 90 140 Q 55 150 35 145 Q 45 138 55 132 Q 40 135 40 130 Z" fill="#4a7fb5" stroke="#2f5580" stroke-width="3"/>
<circle cx="95" cy="100" r="4" fill="#1c2c3d"/>
<path d="M105 82 Q 100 68 108 60 Q 116 70 112 84 Z" fill="#4a7fb5" stroke="#2f5580" stroke-width="2"/>
<path d="M60 140 Q 90 155 130 148" fill="none" stroke="#2f5580" stroke-width="3"/>
</svg>
